name C:\Users\r0593348\3dpredictsim\Results\MidTarsalJoint\Fal_s1_bCst_PF_Natali2010_ls150_MT_k300_d010_MTP_T5_ig21.mot
datacolumns 128
datarows 4
range 1.13440186 1.16843391
endheader
time	pelvis_tilt	pelvis_list	pelvis_rotation	pelvis_tx	pelvis_ty	pelvis_tz	hip_flexion_l	hip_adduction_l	hip_rotation_l	hip_flexion_r	hip_adduction_r	hip_rotation_r	knee_angle_l	knee_angle_r	ankle_angle_l	ankle_angle_r	subtalar_angle_l	subtalar_angle_r	mtj_angle_l	mtj_angle_r	mtp_angle_l	mtp_angle_r	lumbar_extension	lumbar_bending	lumbar_rotation	arm_flex_l	arm_add_l	arm_rot_l	arm_flex_r	arm_add_r	arm_rot_r	elbow_flex_l	elbow_flex_r	pro_sup_l	pro_sup_r	glut_med1_l/activation	glut_med2_l/activation	glut_med3_l/activation	glut_min1_l/activation	glut_min2_l/activation	glut_min3_l/activation	semimem_l/activation	semiten_l/activation	bifemlh_l/activation	bifemsh_l/activation	sar_l/activation	add_long_l/activation	add_brev_l/activation	add_mag1_l/activation	add_mag2_l/activation	add_mag3_l/activation	tfl_l/activation	pect_l/activation	grac_l/activation	glut_max1_l/activation	glut_max2_l/activation	glut_max3_l/activation	iliacus_l/activation	psoas_l/activation	quad_fem_l/activation	gem_l/activation	peri_l/activation	rect_fem_l/activation	vas_med_l/activation	vas_int_l/activation	vas_lat_l/activation	med_gas_l/activation	lat_gas_l/activation	soleus_l/activation	tib_post_l/activation	flex_dig_l/activation	flex_hal_l/activation	tib_ant_l/activation	per_brev_l/activation	per_long_l/activation	per_tert_l/activation	ext_dig_l/activation	ext_hal_l/activation	ercspn_l/activation	intobl_l/activation	extobl_l/activation	glut_med1_r/activation	glut_med2_r/activation	glut_med3_r/activation	glut_min1_r/activation	glut_min2_r/activation	glut_min3_r/activation	semimem_r/activation	semiten_r/activation	bifemlh_r/activation	bifemsh_r/activation	sar_r/activation	add_long_r/activation	add_brev_r/activation	add_mag1_r/activation	add_mag2_r/activation	add_mag3_r/activation	tfl_r/activation	pect_r/activation	grac_r/activation	glut_max1_r/activation	glut_max2_r/activation	glut_max3_r/activation	iliacus_r/activation	psoas_r/activation	quad_fem_r/activation	gem_r/activation	peri_r/activation	rect_fem_r/activation	vas_med_r/activation	vas_int_r/activation	vas_lat_r/activation	med_gas_r/activation	lat_gas_r/activation	soleus_r/activation	tib_post_r/activation	flex_dig_r/activation	flex_hal_r/activation	tib_ant_r/activation	per_brev_r/activation	per_long_r/activation	per_tert_r/activation	ext_dig_r/activation	ext_hal_r/activation	ercspn_r/activation	intobl_r/activation	extobl_r/activation	
          1.13440186	         -2.93010549	         -2.14275281	          5.34794319	          1.41800232	          0.91866310	         -0.00192506	        -16.92941389	         -1.07860708	          6.57892353	         29.36179534	          3.35122999	         -2.51900491	         -7.60204587	        -10.91655846	         -1.76951258	          5.64825344	          8.08255368	         -4.55352577	          4.94065400	         -0.02664309	         11.37091261	         -0.85633213	         -2.00687609	          0.28081534	         -2.08734171	          5.21917243	        -13.45393930	         16.95607666	         -4.75544589	        -13.45319790	          6.84839639	         33.45497965	         16.44026066	         86.51662706	         86.51662706	          0.25390152	          0.09995511	          0.08171943	          0.28843828	          0.19581670	          0.11123845	          0.05000163	          0.05000038	          0.05000022	          0.05701845	          0.10989196	          0.06613750	          0.05001785	          0.05000150	          0.05000267	          0.05000103	          0.30804891	          0.06014119	          0.05000185	          0.05000313	          0.05000235	          0.05000237	          0.43143098	          0.65234954	          0.05000037	          0.05000057	          0.05000901	          0.24913240	          0.05000147	          0.05000152	          0.05000127	          0.29302823	          0.39921859	          0.33914670	          0.27711736	          0.26831431	          0.35246161	          0.05000005	          0.05945313	          0.11701106	          0.05000037	          0.05000009	          0.05000030	          0.05000001	          0.05000017	          0.05000059	          0.05945327	          0.05945332	          0.05000027	          0.05945338	          0.05945336	          0.05945062	          0.14761740	          0.06327103	          0.22077862	          0.05358976	          0.05000025	          0.14119628	          0.26988772	          0.11776812	          0.16472136	          0.10648499	          0.05000016	          0.05016087	          0.12245415	          0.05000115	          0.05368665	          0.15657839	          0.05000044	          0.05000013	          0.19255066	          0.27212890	          0.13367817	          0.05000028	          0.11326882	          0.11187128	          0.10095726	          0.05913906	          0.05407090	          0.05607698	          0.05000004	          0.05000074	          0.05000030	          0.49993199	          0.25123342	          0.16488406	          0.20999215	          0.45356130	          0.20822339	          0.05945331	          0.11788749	          0.10235081	
          1.14574588	         -2.92855601	         -2.22257933	          5.63863646	          1.43505981	          0.91771121	         -0.00173791	        -16.88100049	         -1.37619224	          6.38630856	         28.74145273	          3.68927265	         -2.28481990	         -9.38113862	        -11.20297096	         -2.28033511	          4.97926373	          9.03867548	         -4.92244640	          4.15570191	         -0.02498324	         12.99960333	         -0.85811264	         -1.80660800	          0.47053023	         -2.15336534	          4.95231710	        -13.46151161	         17.28045445	         -5.64042068	        -13.44971072	          6.60924105	         34.63567871	         16.03686805	         86.51662706	         86.51662706	          0.21353013	          0.08406184	          0.06872577	          0.24257553	          0.16468106	          0.09355111	          0.05000263	          0.05000076	          0.05000098	          0.05000034	          0.09241903	          0.14772391	          0.05077348	          0.05945445	          0.05944134	          0.05945290	          0.25906796	          0.05948263	          0.05030924	          0.05000356	          0.05000242	          0.05000283	          0.36283167	          0.61066931	          0.05000249	          0.05945437	          0.05945392	          0.20951937	          0.14838092	          0.12194737	          0.14285000	          0.24643545	          0.33574111	          0.29744244	          0.24532386	          0.22565204	          0.29642073	          0.05000006	          0.05000017	          0.12902045	          0.05000017	          0.05000005	          0.05000027	          0.05662605	          0.06478507	          0.05945334	          0.05000001	          0.05000007	          0.10029554	          0.05000007	          0.05000008	          0.05000010	          0.12414571	          0.05321074	          0.18567388	          0.05000014	          0.05945436	          0.11874648	          0.27599611	          0.30696355	          0.20187787	          0.11298805	          0.05000059	          0.07069264	          0.11979610	          0.05001332	          0.08453142	          0.13168331	          0.05000025	          0.07069337	          0.47552235	          0.22885924	          0.11242281	          0.05945512	          0.13396189	          0.13303540	          0.11682375	          0.05981568	          0.06098851	          0.05000006	          0.05945352	          0.05000463	          0.05945326	          0.46439121	          0.27758197	          0.20353551	          0.17660262	          0.41569019	          0.17511503	          0.05000001	          0.09914286	          0.08607659	
          1.15708989	         -2.92296581	         -2.30627337	          5.89841967	          1.45242791	          0.91682753	         -0.00156699	        -16.77340496	         -1.67538538	          6.18548370	         28.00535692	          3.93868018	         -2.02446901	        -11.24758969	        -11.75672053	         -2.92758344	          4.43459359	          9.95612410	         -5.30946893	          3.21828058	         -0.21984799	         14.71948872	         -0.86732653	         -1.58448236	          0.67259748	         -2.20772484	          4.60318332	        -13.46567606	         17.52296988	         -6.55721286	        -13.45281667	          6.42203130	         35.80238109	         15.69280014	         86.51662706	         86.51662706	          0.32029773	          0.07069568	          0.05779827	          0.31370995	          0.13849620	          0.07867615	          0.05000187	          0.05000027	          0.05000023	          0.05000029	          0.07772457	          0.12423525	          0.05000069	          0.05000130	          0.05000129	          0.05000097	          0.26994579	          0.05002574	          0.05000094	          0.05000649	          0.05000371	          0.05000198	          0.30514011	          0.58422300	          0.05000053	          0.05000204	          0.05000081	          0.17620491	          0.12478796	          0.10255747	          0.12013654	          0.20725111	          0.28235680	          0.25014777	          0.20631641	          0.18977260	          0.24928875	          0.05000002	          0.09326731	          0.14957277	          0.05000016	          0.05000006	          0.05000018	          0.05000005	          0.05448396	          0.05000009	          0.22783956	          0.22623623	          0.27905068	          0.33816426	          0.22449204	          0.21226981	          0.10845268	          0.06443560	          0.15615105	          0.08341370	          0.05000166	          0.09986534	          0.23211159	          0.25815509	          0.16977861	          0.11779072	          0.05000058	          0.05945436	          0.10074980	          0.05000052	          0.09951408	          0.11074547	          0.05808492	          0.05945292	          0.39991223	          0.19246975	          0.20330845	          0.05000152	          0.11266143	          0.11188227	          0.09824833	          0.05030489	          0.05129127	          0.05186487	          0.05000025	          0.05000052	          0.05000078	          0.52910919	          0.31748991	          0.17117288	          0.33284754	          0.48646077	          0.14727153	          0.05826505	          0.12186967	          0.07239003	
          1.16843391	         -2.91564163	         -2.38406757	          6.12230103	          1.46989437	          0.91604420	         -0.00137097	        -16.56481783	         -1.96567468	          5.99475017	         27.22197784	          4.16425774	         -1.76524097	        -13.24925270	        -12.27164211	         -3.73651544	          3.92381661	         10.84046440	         -5.69543272	          2.19228322	         -0.16562485	         16.44169975	         -0.83386278	         -1.36401740	          0.87648905	         -2.25349298	          4.20668622	        -13.47515965	         17.70831214	         -7.45958519	        -13.45602358	          6.28610096	         36.93717795	         15.38851649	         86.51662706	         86.51662706	          0.28862742	          0.05945479	          0.05000019	          0.26383017	          0.11647479	          0.06616636	          0.05000278	          0.05000032	          0.05000028	          0.05000028	          0.06536648	          0.13341498	          0.05000167	          0.05000155	          0.05000267	          0.05000121	          0.22702424	          0.06457188	          0.05000171	          0.05000300	          0.05000190	          0.05000137	          0.25662155	          0.54097429	          0.05000035	          0.05000120	          0.05000027	          0.14818758	          0.12203224	          0.14097120	          0.11885574	          0.17429726	          0.23746082	          0.21037316	          0.17351124	          0.15959806	          0.20965085	          0.05000162	          0.07868310	          0.15602110	          0.05000091	          0.10492301	          0.05000110	          0.07024031	          0.05000001	          0.05000005	          0.32274824	          0.31697658	          0.34037743	          0.28439485	          0.18879817	          0.18377657	          0.09120906	          0.07454022	          0.13132244	          0.07015084	          0.05000122	          0.08398635	          0.19520487	          0.21710751	          0.14278374	          0.15390395	          0.05000046	          0.05000164	          0.08473051	          0.20253818	          0.17085938	          0.14750901	          0.05000008	          0.05000010	          0.33632447	          0.16186630	          0.17098178	          0.05000009	          0.10910350	          0.12707708	          0.08905118	          0.05000003	          0.05000007	          0.05000001	          0.05000002	          0.05000014	          0.05000014	          0.58996015	          0.30366005	          0.16727771	          0.54960682	          0.52696547	          0.25715991	          0.07852731	          0.10249186	          0.06087971	
